<svg xmlns="http://www.w3.org/2000/svg" version="1.1" xmlns:xlink="http://www.w3.org/1999/xlink" xmlns:svgjs="http://svgjs.dev/svgjs" width="1440" height="560" preserveAspectRatio="none" viewBox="0 0 1440 560"><g mask="url(&quot;#SvgjsMask1011&quot;)" fill="none"><rect width="1440" height="560" x="0" y="0" fill="rgba(74, 74, 74, 1)"></rect><path d="M0,398.185C83.948,395.806,177.505,431.431,246.4,383.406C315.18,335.461,319.376,237.402,345.118,157.61C367.858,87.123,396.299,17.809,388.092,-55.799C379.729,-130.806,349.689,-203.182,298.687,-258.813C248.448,-313.611,173.092,-329.732,106.554,-362.889C23.698,-404.177,-50.487,-500.303,-140.213,-477.522C-229.239,-454.919,-236.95,-326.761,-299.748,-259.733C-366.315,-188.682,-503.505,-170.755,-517.844,-74.455C-532.164,21.719,-410.341,80.834,-363.115,165.829C-320.888,241.829,-328.775,350.769,-255.542,397.631C-182.31,444.492,-86.907,400.648,0,398.185" fill="#3b3b3b"></path><path d="M1440 1131.487C1552.156 1151.757 1669.413 1127.1109999999999 1769.912 1073.353 1875.254 1017.004 1965.9299999999998 931.5160000000001 2016.3310000000001 823.202 2066.915 714.495 2065.351 591.2139999999999 2049.567 472.35699999999997 2033.649 352.49 1998.313 235.848 1925.512 139.301 1849.425 38.39700000000005 1751.341-51.86099999999999 1629.362-84.90800000000002 1508.424-117.673 1384.743-72.83799999999997 1263.835-39.96199999999999 1140.521-6.432000000000016 987.925 0.8809999999999718 918.734 108.32 849.156 216.35899999999998 942.158 358.601 925.13 485.973 908.361 611.401 761.461 730.991 820.527 842.904 880.705 956.9259999999999 1061.88 912.0699999999999 1178.749 966.514 1274.038 1010.905 1336.554 1112.792 1440 1131.487" fill="#595959"></path></g><defs><mask id="SvgjsMask1011"><rect width="1440" height="560" fill="#ffffff"></rect></mask></defs></svg>